# xmcd
#
# Track frame offsets:
#	151
#	10587
#	20789
#	28290
#	37192
#	45893
#	56596
#	67098
#	75599
#	85901
#	96703
#	108005
#	118707
#	129709
#	139411
#	148013
#	162716
#	174718
#	186920
#	199195
#	210525
#
# Disc length: 2957 seconds
#
# Revision: 0
# Processed by: cddbd v1.5.2PL0 Copyright (c) Steve Scherf et al.
# Submitted via: audiograbber 1.83.01
#
DISCID=3c0b8b15
DTITLE=Various Artist - Texas Rockabilly And Hillbilly Boogie - Vol. 2
DYEAR=1994
DGENRE=
TTITLE0=Jerry Irby - Fourty Nine Women
TTITLE1=Jerry Irby And The Texas Ranchers - Clickety Clack
TTITLE2=Bob Center - Too Wet To Plow
TTITLE3=Bob Center - Hey Bo
TTITLE4=William Pennix, - Dig That Crazy Driver
TTITLE5=Johnny T Talley - Shine, Shave And Shower
TTITLE6=Don Windle and His String Band - When My Baby Gets Home
TTITLE7=Frank Kratz - Go Cat Go
TTITLE8=Al Epp and The Pharaohs - Breaking My Heart
TTITLE9=Jesse James - Piano Pete's Boogie
TTITLE10=Jesse James - Billy's Tune
TTITLE11=Hank Stanford - She's A Hum Dum Dinger
TTITLE12=Hank Stanford - Fan It And Cool It
TTITLE13=Wally Hughes - Convertible Car
TTITLE14=Wally Hughes - Pug Nose And Pony Tail
TTITLE15=York Brothers - HamMama
TTITLE16=Hank The Drifter - Hank You're Gone
TTITLE17=Homer Clements and His Texas Swingbillies - Little Beaver
TTITLE18=Joe D Gibson - Evil Eve
TTITLE19=Red Mansel And His Hillbilly Boys - Johnny On The Spot
TTITLE20=Hoyle Nix And His West Texas Cowboys - Big Balls In Cowtown
EXTD=
EXTT0=
EXTT1=
EXTT2=
EXTT3=
EXTT4=
EXTT5=
EXTT6=
EXTT7=
EXTT8=
EXTT9=
EXTT10=
EXTT11=
EXTT12=
EXTT13=
EXTT14=
EXTT15=
EXTT16=
EXTT17=
EXTT18=
EXTT19=
EXTT20=
PLAYORDER=
